<svg width="378" height="448" viewBox="0 0 378 448" fill="none" xmlns="http://www.w3.org/2000/svg">
<path d="M36.877 1.5758C20.177 5.9758 6.37703 19.6758 1.47703 36.7758C-0.022974 41.7758 -0.122974 57.0758 0.0770259 188.276C0.377026 332.476 0.377026 334.276 2.37703 336.976C9.77703 346.876 24.977 345.476 29.977 334.376C31.777 330.476 31.877 324.576 31.877 188.076C31.877 89.8758 32.177 45.0758 32.977 43.0758C34.277 39.5758 37.477 36.0758 41.377 33.9758C44.077 32.4758 54.477 32.2758 154.077 31.7758C263.377 31.2758 263.777 31.2758 266.577 29.1758C276.377 21.8758 276.377 9.6758 266.577 2.3758C263.777 0.275801 263.577 0.275801 153.577 0.0758005C52.577 -0.124199 42.877 -0.0241995 36.877 1.5758Z" fill="#222222"/>
<path d="M104.977 71.376C89.277 75.576 76.777 87.776 71.877 103.576C69.877 109.876 69.877 113.176 69.877 258.776C69.877 403.876 69.877 407.676 71.877 413.876C76.777 429.976 89.577 441.876 106.477 446.276C115.277 448.576 332.477 448.576 341.377 446.276C354.377 442.876 365.277 434.776 371.677 423.576C378.177 412.176 377.877 421.376 377.877 258.176C377.877 113.176 377.877 109.876 375.877 103.576C370.977 87.476 358.477 75.476 342.377 71.276C333.777 69.076 113.277 69.076 104.977 71.376Z" fill="#222222"/>
</svg>
