<svg width="512" height="513" viewBox="0 0 512 513" fill="none" xmlns="http://www.w3.org/2000/svg">
<path d="M60.0026 1.70082C30.5026 8.10082 7.60256 31.1008 1.50256 60.7008C0.202556 67.1008 0.00255621 92.3008 0.00255621 256.101C0.00255621 461.201 -0.297444 450.701 5.60256 465.201C13.0026 483.301 28.8026 499.101 47.0026 506.501C60.7026 512.101 61.2026 512.101 147.003 512.101H226.003V421.601V331.101H196.003H166.003V286.101V241.101H195.903H225.903L226.203 203.301C226.603 168.201 226.803 165.101 228.803 157.601C237.503 126.301 262.103 101.701 293.503 92.9008C301.203 90.8008 303.303 90.7008 354.303 90.3008L407.003 90.0008V135.001V180.101H361.503H316.003V210.601V241.101H361.603H407.203L406.603 243.801C406.303 245.401 403.103 264.401 399.503 286.101C395.903 307.801 392.703 326.801 392.403 328.301L391.803 331.101H353.903H316.003V421.601V512.101H380.003C449.503 512.101 451.603 512.001 465.103 506.501C483.203 499.101 499.003 483.301 506.403 465.101C512.303 450.701 512.003 461.001 512.003 256.101C512.003 92.3008 511.803 67.1008 510.503 60.7008C504.303 30.9008 481.203 7.80082 451.403 1.60082C440.803 -0.599178 70.1026 -0.499178 60.0026 1.70082Z" fill="white"/>
</svg>
