<?xml version="1.0"?>
<svg width="751" height="707" xmlns="http://www.w3.org/2000/svg" xmlns:svg="http://www.w3.org/2000/svg" preserveAspectRatio="xMidYMid meet" version="1.0">
 <metadata>Created by potrace 1.16, written by Peter Selinger 2001-2019</metadata>
 <g class="layer">
  <title>Layer 1</title>
  <g fill="#000000" id="svg_1" transform="matrix(0.1 0 0 -0.1 0 0)">
   <path d="m1590,-1016c-295,-64 -524,-294 -585,-590c-13,-64 -15,-316 -15,-1954c0,-2051 -3,-1946 56,-2091c74,-181 232,-339 414,-413c137,-56 142,-56 1000,-56l790,0l0,905l0,905l-300,0l-300,0l0,450l0,450l299,0l300,0l3,378c4,351 6,382 26,457c87,313 333,559 647,647c77,21 98,22 608,26l527,3l0,-450l0,-451l-455,0l-455,0l0,-305l0,-305l456,0l456,0l-6,-27c-3,-16 -35,-206 -71,-423c-36,-217 -68,-407 -71,-422l-6,-28l-379,0l-379,0l0,-905l0,-905l640,0c695,0 716,1 851,56c181,74 339,232 413,414c59,144 56,41 56,2090c0,1638 -2,1890 -15,1954c-62,298 -293,529 -591,591c-106,22 -3813,21 -3914,-1z" fill="#ffffff" id="svg_2"/>
  </g>
 </g>
</svg>