<?xml version="1.0"?>
<svg width="806" height="706" xmlns="http://www.w3.org/2000/svg" xmlns:svg="http://www.w3.org/2000/svg" preserveAspectRatio="xMidYMid meet" version="1.0">
 <metadata>Created by potrace 1.16, written by Peter Selinger 2001-2019</metadata>
 <g class="layer">
  <title>Layer 1</title>
  <g fill="#000000" id="svg_1" transform="matrix(0.1 0 0 -0.1 0 0)">
   <path d="m3761,-969c-3,-9 -1,-52 6,-97c34,-244 -7,-485 -119,-709c-91,-181 -213,-339 -516,-668c-248,-270 -311,-343 -411,-477c-250,-336 -380,-649 -428,-1033c-25,-193 -16,-477 19,-646c128,-609 540,-1104 1112,-1337c478,-196 1016,-179 1479,47c567,277 973,846 1045,1468c16,136 8,437 -15,568c-57,324 -167,605 -333,850c-104,155 -136,160 -133,23c5,-244 -148,-436 -377,-474c-141,-23 -276,25 -380,135c-33,36 -73,91 -88,123c-27,55 -29,65 -29,183c1,102 7,156 35,295c32,155 35,184 34,330c-2,259 -54,469 -175,705c-134,261 -359,509 -625,689c-66,44 -91,50 -101,25zm134,-2512c17,-11 17,-23 9,-192c-18,-354 37,-554 194,-710c212,-212 533,-229 781,-43c71,54 82,52 110,-19c52,-133 65,-365 29,-516c-82,-341 -348,-610 -687,-694c-121,-30 -322,-30 -436,1c-344,92 -611,371 -681,713c-21,102 -21,316 0,439c41,240 147,458 338,695c77,95 307,335 321,334c6,0 15,-4 22,-8z" fill="#3490fc" id="svg_2"/>
  </g>
 </g>
</svg>