<svg width="368" height="512" viewBox="0 0 368 512" fill="none" xmlns="http://www.w3.org/2000/svg">
<path d="M148.221 1.46917C147.921 2.36917 148.121 6.66917 148.821 11.1692C152.221 35.5692 148.121 59.6692 136.921 82.0692C127.821 100.169 115.621 115.969 85.3213 148.869C60.5213 175.869 54.2213 183.169 44.2213 196.569C19.2213 230.169 6.22126 261.469 1.42126 299.869C-1.07874 319.169 -0.178741 347.569 3.32126 364.469C16.1213 425.369 57.3213 474.869 114.521 498.169C162.321 517.769 216.121 516.069 262.421 493.469C319.121 465.769 359.721 408.869 366.921 346.669C368.521 333.069 367.721 302.969 365.421 289.869C359.721 257.469 348.721 229.369 332.121 204.869C321.721 189.369 318.521 188.869 318.821 202.569C319.321 226.969 304.021 246.169 281.121 249.969C267.021 252.269 253.521 247.469 243.121 236.469C239.821 232.869 235.821 227.369 234.321 224.169C231.621 218.669 231.421 217.669 231.421 205.869C231.521 195.669 232.121 190.269 234.921 176.369C238.121 160.869 238.421 157.969 238.321 143.369C238.121 117.469 232.921 96.4692 220.821 72.8692C207.421 46.7692 184.921 21.9692 158.321 3.96917C151.721 -0.430829 149.221 -1.03083 148.221 1.46917ZM161.621 252.669C163.321 253.769 163.321 254.969 162.521 271.869C160.721 307.269 166.221 327.269 181.921 342.869C203.121 364.069 235.221 365.769 260.021 347.169C267.121 341.769 268.221 341.969 271.021 349.069C276.221 362.369 277.521 385.569 273.921 400.669C265.721 434.769 239.121 461.669 205.221 470.069C193.121 473.069 173.021 473.069 161.621 469.969C127.221 460.769 100.521 432.869 93.5213 398.669C91.4213 388.469 91.4213 367.069 93.5213 354.769C97.6213 330.769 108.221 308.969 127.321 285.269C135.021 275.769 158.021 251.769 159.421 251.869C160.021 251.869 160.921 252.269 161.621 252.669Z" fill="#3490FC"/>
</svg>
