<svg width="512" height="432" viewBox="0 0 512 432" fill="none" xmlns="http://www.w3.org/2000/svg">
<path d="M242.072 0.61157C211.872 6.11157 186.372 29.6116 178.272 59.6116C175.772 68.7116 175.772 90.6116 178.272 99.5116C183.672 119.012 195.772 135.712 212.572 146.612C226.172 155.512 238.472 159.112 255.872 159.112C278.372 159.112 296.972 151.512 312.372 136.112C327.772 120.712 335.372 102.112 335.372 79.6116C335.372 62.2116 331.772 49.9116 322.872 36.3116C312.072 19.6116 295.172 7.31157 276.372 2.11157C269.172 0.21157 249.472 -0.68843 242.072 0.61157Z" fill="#555555"/>
<path d="M73.8722 49.2116C62.7722 51.5116 51.4722 57.8116 42.7722 66.5116C17.6722 91.7116 17.5722 131.512 42.7722 156.612C68.0722 181.812 107.872 181.912 132.872 156.712C158.172 131.312 158.172 91.9116 132.872 66.5116C117.372 50.9116 95.4722 44.5116 73.8722 49.2116Z" fill="#555555"/>
<path d="M409.872 49.2116C398.772 51.5116 387.472 57.8116 378.772 66.5116C353.672 91.7116 353.572 131.512 378.772 156.612C404.072 181.812 443.872 181.912 468.872 156.712C494.172 131.312 494.172 91.9116 468.872 66.5116C453.372 50.9116 431.472 44.5116 409.872 49.2116Z" fill="#555555"/>
<path d="M76.3721 208.612C64.0721 210.612 49.9721 216.112 40.1721 222.712C33.1721 227.412 22.3721 238.112 17.2721 245.312C11.6721 253.112 5.47214 266.312 2.67214 276.312C0.572136 283.612 0.472136 286.712 0.072136 327.912C-0.127864 358.112 0.0721359 373.312 0.872136 377.112C3.67214 390.412 13.9721 404.112 25.6721 410.012C36.0721 415.312 39.1721 415.612 79.6721 415.612C112.872 415.612 116.972 415.412 116.472 414.112C112.372 403.412 112.372 402.912 112.372 351.112C112.372 302.912 112.472 300.712 114.672 290.812C118.972 271.212 126.072 254.812 137.372 238.112C140.972 232.812 143.872 228.112 143.872 227.712C143.872 226.912 131.172 219.212 123.072 215.112C111.572 209.412 90.3721 206.412 76.3721 208.612Z" fill="#555555"/>
<path d="M238.372 209.012C192.972 216.112 156.672 250.412 146.172 296.112C144.572 303.312 144.372 309.012 144.372 351.112C144.372 397.512 144.372 398.212 146.572 403.612C151.172 414.712 160.772 424.312 171.872 428.912L177.372 431.112H255.872H334.372L339.872 428.912C350.972 424.312 360.572 414.712 365.172 403.612C367.272 398.312 367.372 396.912 367.672 356.112C367.972 311.112 367.472 303.512 363.272 288.812C347.472 234.312 294.372 200.312 238.372 209.012Z" fill="#555555"/>
<path d="M404.072 210.212C392.772 212.612 377.272 219.912 370.172 226.012C367.572 228.312 367.472 228.412 369.172 230.712C384.472 251.612 393.372 271.412 397.572 293.612C399.172 301.912 399.372 309.212 399.372 351.612C399.372 401.212 399.172 404.012 395.372 413.812C394.672 415.512 396.872 415.612 432.072 415.612C461.972 415.612 470.572 415.312 475.172 414.112C492.872 409.512 507.272 394.612 510.872 377.012C511.572 373.512 511.872 356.612 511.672 326.412C511.272 283.212 511.172 280.712 509.072 273.112C500.472 242.112 476.772 219.012 445.372 211.112C437.372 209.012 433.372 208.612 422.972 208.712C416.072 208.812 407.572 209.412 404.072 210.212Z" fill="#555555"/>
</svg>
