<?xml version="1.0"?>
<svg width="1015" height="781" xmlns="http://www.w3.org/2000/svg" xmlns:svg="http://www.w3.org/2000/svg" preserveAspectRatio="xMidYMid meet" version="1.0">
 <metadata>Created by potrace 1.16, written by Peter Selinger 2001-2019</metadata>
 <g class="layer">
  <title>Layer 1</title>
  <g fill="#000000" id="svg_1" transform="matrix(0.1 0 0 -0.1 0 0)">
   <path d="m4412,-2100c-302,-55 -557,-290 -638,-590c-25,-91 -25,-310 0,-399c54,-195 175,-362 343,-471c136,-89 259,-125 433,-125c225,0 411,76 565,230c154,154 230,340 230,565c0,174 -36,297 -125,433c-108,167 -277,290 -465,342c-72,19 -269,28 -343,15z" fill="#ffffff" id="svg_2"/>
   <path d="m2730,-2586c-111,-23 -224,-86 -311,-173c-251,-252 -252,-650 0,-901c253,-252 651,-253 901,-1c253,254 253,648 0,902c-155,156 -374,220 -590,173z" fill="#ffffff" id="svg_3"/>
   <path d="m6090,-2586c-111,-23 -224,-86 -311,-173c-251,-252 -252,-650 0,-901c253,-252 651,-253 901,-1c253,254 253,648 0,902c-155,156 -374,220 -590,173z" fill="#ffffff" id="svg_4"/>
   <path d="m2755,-4180c-123,-20 -264,-75 -362,-141c-70,-47 -178,-154 -229,-226c-56,-78 -118,-210 -146,-310c-21,-73 -22,-104 -26,-516c-2,-302 0,-454 8,-492c28,-133 131,-270 248,-329c104,-53 135,-56 540,-56c332,0 373,2 368,15c-41,107 -41,112 -41,630c0,482 1,504 23,603c43,196 114,360 227,527c36,53 65,100 65,104c0,8 -127,85 -208,126c-115,57 -327,87 -467,65z" fill="#ffffff" id="svg_5"/>
   <path d="m4375,-4184c-454,-71 -817,-414 -922,-871c-16,-72 -18,-129 -18,-550c0,-464 0,-471 22,-525c46,-111 142,-207 253,-253l55,-22l785,0l785,0l55,22c111,46 207,142 253,253c21,53 22,67 25,475c3,450 -2,526 -44,673c-158,545 -689,885 -1249,798z" fill="#ffffff" id="svg_6"/>
   <path d="m6032,-4196c-113,-24 -268,-97 -339,-158c-26,-23 -27,-24 -10,-47c153,-209 242,-407 284,-629c16,-83 18,-156 18,-580c0,-496 -2,-524 -40,-622c-7,-17 15,-18 367,-18c299,0 385,3 431,15c177,46 321,195 357,371c7,35 10,204 8,506c-4,432 -5,457 -26,533c-86,310 -323,541 -637,620c-80,21 -120,25 -224,24c-69,-1 -154,-7 -189,-15z" fill="#ffffff" id="svg_7"/>
  </g>
 </g>
</svg>