<?xml version="1.0"?>
<svg width="783" height="773" xmlns="http://www.w3.org/2000/svg" xmlns:svg="http://www.w3.org/2000/svg" preserveAspectRatio="xMidYMid meet" version="1.0">
 <metadata>Created by potrace 1.16, written by Peter Selinger 2001-2019</metadata>
 <g class="layer">
  <title>Layer 1</title>
  <g fill="#000000" id="svg_1" transform="matrix(0.1 0 0 -0.1 0 0)">
   <path d="m3483,-1375c-130,-36 -94,-3 -1246,-1153c-598,-598 -1101,-1107 -1117,-1131c-124,-185 -99,-433 59,-592c92,-91 209,-139 343,-139l68,0l0,-802c0,-681 3,-813 15,-867c42,-177 185,-331 363,-393c66,-23 71,-23 554,-23c476,0 487,0 514,21c15,11 37,33 48,48c21,27 21,40 26,695l5,668l30,49c38,61 115,110 189,119c28,4 168,5 311,3l260,-3l53,-29c50,-28 82,-61 113,-116c11,-21 15,-144 19,-692c5,-654 5,-667 26,-694c11,-15 33,-37 48,-48c27,-21 38,-21 514,-21c483,0 488,0 554,23c182,63 329,228 367,410c7,36 11,311 11,852l0,800l68,0c240,0 434,163 474,398c15,92 0,190 -43,282c-29,60 -116,150 -1118,1153c-597,598 -1107,1101 -1133,1118c-26,17 -71,40 -100,51c-70,27 -204,33 -275,13z" fill="#ffffff" id="svg_2"/>
  </g>
 </g>
</svg>