<svg width="512" height="512" viewBox="0 0 512 512" fill="none" xmlns="http://www.w3.org/2000/svg">
<path d="M244.159 1.18395C231.159 4.78395 234.759 1.48395 119.559 116.484C59.7589 176.284 9.45892 227.184 7.85892 229.584C-4.54108 248.084 -2.04108 272.884 13.7589 288.784C22.9589 297.884 34.6589 302.684 48.0589 302.684H54.8589V382.884C54.8589 450.984 55.1589 464.184 56.3589 469.584C60.5589 487.284 74.8589 502.684 92.6589 508.884C99.2589 511.184 99.7589 511.184 148.059 511.184C195.659 511.184 196.759 511.184 199.459 509.084C200.959 507.984 203.159 505.784 204.259 504.284C206.359 501.584 206.359 500.284 206.859 434.784L207.359 367.984L210.359 363.084C214.159 356.984 221.859 352.084 229.259 351.184C232.059 350.784 246.059 350.684 260.359 350.884L286.359 351.184L291.659 354.084C296.659 356.884 299.859 360.184 302.959 365.684C304.059 367.784 304.459 380.084 304.859 434.884C305.359 500.284 305.359 501.584 307.459 504.284C308.559 505.784 310.759 507.984 312.259 509.084C314.959 511.184 316.059 511.184 363.659 511.184C411.959 511.184 412.459 511.184 419.059 508.884C437.259 502.584 451.959 486.084 455.759 467.884C456.459 464.284 456.859 436.784 456.859 382.684V302.684H463.659C487.659 302.684 507.059 286.384 511.059 262.884C512.559 253.684 511.059 243.884 506.759 234.684C503.859 228.684 495.159 219.684 394.959 119.384C335.259 59.584 284.259 9.28395 281.659 7.58395C279.059 5.88395 274.559 3.58395 271.659 2.48395C264.659 -0.216048 251.259 -0.816048 244.159 1.18395Z" fill="#555555"/>
</svg>
