<svg width="342" height="426" viewBox="0 0 342 426" fill="none" xmlns="http://www.w3.org/2000/svg">
<path d="M159.042 3.18489C130.142 18.4849 109.742 46.7849 100.142 84.7849C96.2419 100.185 94.5419 113.485 94.5419 127.085C94.5419 152.085 100.042 169.185 118.242 200.685C126.242 214.485 128.042 219.585 127.442 226.585C126.342 240.385 111.742 250.185 96.9419 247.185C89.9419 245.785 86.6419 243.385 81.2419 235.785C73.9419 225.485 66.6419 209.085 59.1419 186.085C54.3419 171.285 49.5419 164.185 43.0419 162.085C34.1419 159.085 22.0419 169.685 14.3419 187.385C3.34192 212.585 -1.75808 242.785 0.541916 269.185C4.34192 311.585 21.4419 347.885 51.2419 377.285C61.8419 387.685 65.3419 390.485 77.1419 398.285C94.5419 409.885 115.342 418.385 137.642 423.285C146.842 425.185 150.942 425.485 170.642 425.485C190.342 425.485 194.442 425.185 203.642 423.285C225.942 418.385 246.342 410.085 263.442 398.785C275.942 390.485 279.242 387.785 290.042 377.285C319.842 347.985 336.842 311.685 340.642 269.085C344.442 228.085 332.342 197.385 298.142 161.285C285.442 147.885 273.242 137.785 253.042 124.085C243.942 117.885 233.942 110.285 230.842 107.185C214.842 91.4849 200.442 58.9849 192.142 19.8849C190.242 10.6849 186.542 5.18489 180.442 2.18489C173.742 -1.01511 166.342 -0.715111 159.042 3.18489ZM168.942 88.5849C177.542 108.785 190.142 127.785 203.142 139.885C207.242 143.685 218.742 152.385 228.742 159.185C248.342 172.485 259.342 181.685 269.742 193.285C284.942 210.185 291.742 220.885 295.842 234.085C297.842 240.585 298.142 243.585 298.142 256.585C298.042 289.985 286.442 319.285 263.642 343.485C239.142 369.485 206.342 383.485 170.142 383.385C136.942 383.285 107.042 371.385 82.8419 348.585C60.7419 327.785 47.1419 300.585 43.6419 270.085C41.9419 255.585 42.3419 254.585 47.0419 261.385C52.3419 269.185 62.9419 278.985 70.3419 282.885C88.3419 292.385 114.842 292.585 133.342 283.285C150.042 274.785 161.242 261.985 167.342 244.185C169.642 237.685 170.042 234.885 170.042 224.585C170.142 207.585 168.242 202.385 150.642 171.085C136.742 146.285 134.142 130.385 139.642 103.585C143.142 86.8849 147.642 74.5849 154.342 64.2849L157.942 58.5849L161.142 68.0849C162.842 73.2849 166.442 82.4849 168.942 88.5849Z" fill="#42D2FF"/>
</svg>
