<?xml version="1.0"?>
<svg width="732" height="720" xmlns="http://www.w3.org/2000/svg" xmlns:svg="http://www.w3.org/2000/svg" preserveAspectRatio="xMidYMid meet" version="1.0">
 <metadata>Created by potrace 1.16, written by Peter Selinger 2001-2019</metadata>
 <g class="layer">
  <title>Layer 1</title>
  <g fill="#000000" id="svg_1" transform="matrix(0.1 0 0 -0.1 0 0)">
   <path d="m3324,-1471c-289,-153 -493,-436 -589,-816c-39,-154 -56,-287 -56,-423c0,-250 55,-421 237,-736c80,-138 98,-189 92,-259c-11,-138 -157,-236 -305,-206c-70,14 -103,38 -157,114c-73,103 -146,267 -221,497c-48,148 -96,219 -161,240c-89,30 -210,-76 -287,-253c-110,-252 -161,-554 -138,-818c38,-424 209,-787 507,-1081c106,-104 141,-132 259,-210c174,-116 382,-201 605,-250c92,-19 133,-22 330,-22c197,0 238,3 330,22c223,49 427,132 598,245c125,83 158,110 266,215c298,293 468,656 506,1082c38,410 -83,717 -425,1078c-127,134 -249,235 -451,372c-91,62 -191,138 -222,169c-160,157 -304,482 -387,873c-19,92 -56,147 -117,177c-67,32 -141,29 -214,-10zm99,-854c86,-202 212,-392 342,-513c41,-38 156,-125 256,-193c196,-133 306,-225 410,-341c152,-169 220,-276 261,-408c20,-65 23,-95 23,-225c-1,-334 -117,-627 -345,-869c-245,-260 -573,-400 -935,-399c-332,1 -631,120 -873,348c-221,208 -357,480 -392,785c-17,145 -13,155 34,87c53,-78 159,-176 233,-215c180,-95 445,-97 630,-4c167,85 279,213 340,391c23,65 27,93 27,196c1,170 -18,222 -194,535c-139,248 -165,407 -110,675c35,167 80,290 147,393l36,57l32,-95c17,-52 53,-144 78,-205z" fill="#42d2ff" id="svg_2"/>
  </g>
 </g>
</svg>