<?xml version="1.0"?>
<svg width="817" height="775" xmlns="http://www.w3.org/2000/svg" xmlns:svg="http://www.w3.org/2000/svg" preserveAspectRatio="xMidYMid meet" version="1.0">
 <metadata>Created by potrace 1.16, written by Peter Selinger 2001-2019</metadata>
 <g class="layer">
  <title>Layer 1</title>
  <g fill="#000000" id="svg_1" transform="matrix(0.1 0 0 -0.1 0 0)">
   <path d="m2939,-1270c-236,-10 -396,-31 -547,-71c-438,-115 -758,-397 -920,-809c-113,-287 -132,-529 -132,-1680c0,-987 13,-1247 75,-1485c151,-579 576,-944 1203,-1030c181,-24 562,-35 1287,-35c685,0 1061,10 1235,30c362,43 642,166 863,379c248,238 378,521 429,931c19,153 19,2311 0,2455c-30,225 -86,417 -169,578c-61,118 -125,204 -236,315c-247,249 -554,376 -1002,413c-161,13 -1813,20 -2086,9zm1978,-470c279,-16 429,-51 598,-138c70,-37 109,-66 181,-137c101,-101 158,-188 204,-313c62,-169 77,-279 91,-675c13,-356 6,-1703 -10,-1906c-28,-345 -102,-532 -281,-711c-178,-178 -354,-248 -710,-282c-192,-18 -1988,-18 -2180,0c-248,24 -407,67 -550,149c-80,47 -242,207 -289,286c-84,144 -134,339 -151,588c-17,258 -24,1316 -11,1759c15,544 34,671 125,865c155,326 443,487 924,514c203,12 1860,12 2059,1z" fill="#ffffff" id="svg_2"/>
   <path d="m5132,-2180c-113,-57 -167,-145 -167,-275c0,-94 22,-150 86,-214c64,-64 120,-86 214,-86c130,0 218,54 275,167c24,50 30,74 30,128c0,97 -23,155 -89,221c-66,66 -124,89 -221,89c-54,0 -78,-6 -128,-30z" fill="#ffffff" id="svg_3"/>
   <path d="m3666,-2526c-264,-48 -496,-171 -692,-368c-262,-262 -386,-560 -386,-926c0,-387 153,-727 441,-984c245,-218 537,-327 871,-327c355,0 657,121 911,368c204,198 336,445 384,717c20,115 20,337 0,452c-45,258 -166,492 -352,685c-198,204 -445,336 -717,384c-111,19 -352,19 -460,-1zm396,-458c595,-114 881,-803 545,-1309c-125,-187 -316,-316 -542,-364c-110,-23 -306,-13 -415,22c-270,86 -474,288 -562,555c-26,81 -31,114 -35,225c-6,148 6,222 56,350c99,258 348,466 620,520c89,18 243,18 333,1z" fill="#ffffff" id="svg_4"/>
  </g>
 </g>
</svg>