<svg width="511" height="512" viewBox="0 0 511 512" fill="none" xmlns="http://www.w3.org/2000/svg">
<path d="M159.9 0.544914C136.3 1.54491 120.3 3.64491 105.2 7.64491C61.4 19.1449 29.4 47.3449 13.2 88.5449C1.9 117.245 0 141.445 0 256.545C0 355.245 1.3 381.245 7.5 405.045C22.6 462.945 65.1 499.445 127.8 508.045C145.9 510.445 184 511.545 256.5 511.545C325 511.545 362.6 510.545 380 508.545C416.2 504.245 444.2 491.945 466.3 470.645C491.1 446.845 504.1 418.545 509.2 377.545C511.1 362.245 511.1 146.445 509.2 132.045C506.2 109.545 500.6 90.3449 492.3 74.2449C486.2 62.4449 479.8 53.8449 468.7 42.7449C444 17.8449 413.3 5.14491 368.5 1.44491C352.4 0.144914 187.2 -0.555086 159.9 0.544914ZM357.7 47.5449C385.6 49.1449 400.6 52.6449 417.5 61.3449C424.5 65.0449 428.4 67.9449 435.6 75.0449C445.7 85.1449 451.4 93.8449 456 106.345C462.2 123.245 463.7 134.245 465.1 173.845C466.4 209.445 465.7 344.145 464.1 364.445C461.3 398.945 453.9 417.645 436 435.545C418.2 453.345 400.6 460.345 365 463.745C345.8 465.545 166.2 465.545 147 463.745C122.2 461.345 106.3 457.045 92 448.845C84 444.145 67.8 428.145 63.1 420.245C54.7 405.845 49.7 386.345 48 361.445C46.3 335.645 45.6 229.845 46.9 185.545C48.4 131.145 50.3 118.445 59.4 99.0449C74.9 66.4449 103.7 50.3449 151.8 47.6449C172.1 46.4449 337.8 46.4449 357.7 47.5449Z" fill="white"/>
<path d="M379.2 91.5449C367.9 97.2449 362.5 106.045 362.5 119.045C362.5 128.445 364.7 134.045 371.1 140.445C377.5 146.845 383.1 149.045 392.5 149.045C405.5 149.045 414.3 143.645 420 132.345C422.4 127.345 423 124.945 423 119.545C423 109.845 420.7 104.045 414.1 97.4449C407.5 90.8449 401.7 88.5449 392 88.5449C386.6 88.5449 384.2 89.1449 379.2 91.5449Z" fill="white"/>
<path d="M232.6 126.145C206.2 130.945 183 143.245 163.4 162.945C137.2 189.145 124.8 218.945 124.8 255.545C124.8 294.245 140.1 328.245 168.9 353.945C193.4 375.745 222.6 386.645 256 386.645C291.5 386.645 321.7 374.545 347.1 349.845C367.5 330.045 380.7 305.345 385.5 278.145C387.5 266.645 387.5 244.445 385.5 232.945C381 207.145 368.9 183.745 350.3 164.445C330.5 144.045 305.8 130.845 278.6 126.045C267.5 124.145 243.4 124.145 232.6 126.145ZM272.2 171.945C331.7 183.345 360.3 252.245 326.7 302.845C314.2 321.545 295.1 334.445 272.5 339.245C261.5 341.545 241.9 340.545 231 337.045C204 328.445 183.6 308.245 174.8 281.545C172.2 273.445 171.7 270.145 171.3 259.045C170.7 244.245 171.9 236.845 176.9 224.045C186.8 198.245 211.7 177.445 238.9 172.045C247.8 170.245 263.2 170.245 272.2 171.945Z" fill="white"/>
</svg>
