<svg width="448" height="448" viewBox="0 0 448 448" fill="none" xmlns="http://www.w3.org/2000/svg">
<path d="M89.5666 1.16861C85.8666 2.76861 82.5666 6.36861 81.1666 10.0686C79.7666 13.7686 79.7666 72.4686 81.1666 89.4686C86.6666 156.269 111.667 211.669 154.567 251.969C175.867 271.869 206.567 287.769 224.067 287.769C235.167 287.769 256.667 279.569 271.267 269.669C322.267 235.269 355.967 175.669 365.767 102.769C367.167 91.6686 367.567 82.1686 367.567 49.5686C367.567 11.0686 367.467 9.86861 365.467 7.16861C364.367 5.66861 362.167 3.46861 360.667 2.36861C357.967 0.268611 357.567 0.268611 225.267 0.0686114C116.167 -0.131389 92.0666 0.0686114 89.5666 1.16861Z" fill="white"/>
<path d="M9.56653 49.1686C5.86653 50.7686 2.56653 54.3686 1.16653 58.0686C-0.633468 62.6686 -0.233468 118.269 1.56653 129.669C7.46653 165.569 29.8665 195.869 62.8665 212.269C70.2665 215.969 87.9665 222.169 88.7665 221.369C88.9665 221.269 86.5665 216.669 83.5665 211.169C80.4665 205.769 75.8665 196.169 73.2665 189.969C69.3665 180.669 67.9665 178.269 65.0665 176.369C58.9665 172.369 49.3665 162.069 44.6665 154.469C34.8665 138.669 32.1665 126.869 32.0665 98.9686V79.7686H40.0665H48.0665V63.7686V47.7686H30.3665C17.7665 47.8686 11.6665 48.2686 9.56653 49.1686Z" fill="white"/>
<path d="M400.066 63.6686V79.7686H408.066H416.066V98.9686C415.966 120.169 414.766 129.269 410.666 140.269C405.566 153.669 394.966 167.769 384.066 175.669C380.066 178.469 378.966 180.269 374.566 190.569C371.766 196.969 367.266 206.269 364.566 211.269C361.766 216.169 359.466 220.569 359.266 220.969C359.066 221.369 362.266 220.769 366.266 219.669C395.966 211.469 422.066 189.869 435.966 162.069C446.366 141.269 448.266 129.569 447.866 88.5686C447.566 59.3686 447.466 57.7686 445.466 55.1686C440.566 48.5686 439.666 48.2686 418.966 47.9686L400.066 47.6686V63.6686Z" fill="white"/>
<path d="M169.567 305.169C166.767 314.769 159.867 333.269 156.067 341.369L151.167 351.769H224.067H296.967L291.967 341.169C289.167 335.369 284.967 324.769 282.567 317.669C280.167 310.569 277.967 304.769 277.667 304.769C277.367 304.869 273.367 306.669 268.867 308.769C258.167 313.769 245.167 317.469 233.367 318.969C216.767 320.969 196.267 316.969 178.767 308.369C173.267 305.669 169.767 304.369 169.567 305.169Z" fill="white"/>
<path d="M121.567 385.169C117.467 386.969 113.267 392.069 112.567 396.069C112.167 397.869 112.067 407.869 112.267 418.469C112.567 439.469 112.767 440.269 119.467 445.169C122.167 447.269 122.767 447.269 224.066 447.269C325.366 447.269 325.966 447.269 328.666 445.169C335.466 440.069 335.566 439.869 335.566 415.769C335.566 391.669 335.466 391.469 328.666 386.369C325.966 384.269 325.166 384.269 225.266 384.069C143.067 383.869 123.967 384.069 121.567 385.169Z" fill="white"/>
</svg>
