<?xml version="1.0"?>
<svg width="852" height="784" xmlns="http://www.w3.org/2000/svg" xmlns:svg="http://www.w3.org/2000/svg" preserveAspectRatio="xMidYMid meet" version="1.0">
 <metadata>Created by potrace 1.16, written by Peter Selinger 2001-2019</metadata>
 <g class="layer">
  <title>Layer 1</title>
  <g fill="#000000" id="svg_1" transform="matrix(0.1 0 0 -0.1 0 0)">
   <path d="m3720,-1464c-119,-32 -245,-133 -291,-233l-24,-53l-162,0l-163,0l0,-300l0,-300l750,0l750,0l0,300l0,300l-163,0l-162,0l-24,53c-48,104 -181,208 -302,236c-59,14 -154,13 -209,-3z" fill="#ffffff" id="svg_2"/>
   <path d="m1958,-1771c-23,-12 -46,-35 -58,-59c-20,-39 -20,-55 -20,-2330c0,-2276 0,-2291 20,-2330c13,-26 34,-47 60,-60c39,-20 55,-20 1870,-20c1815,0 1831,0 1870,20c26,13 47,34 60,60c20,39 20,54 20,2330c0,2276 0,2291 -20,2330c-13,26 -34,47 -60,60c-37,19 -58,20 -430,20l-390,0l0,-391c0,-387 0,-392 -22,-431c-14,-24 -38,-48 -60,-59c-36,-18 -74,-19 -969,-19l-931,0l-40,22c-78,44 -78,45 -78,488l0,390l-392,0c-372,-1 -395,-2 -430,-21zm2104,-1664c378,-79 676,-310 848,-660c356,-723 -82,-1571 -884,-1711c-130,-23 -347,-14 -477,19c-437,113 -757,434 -877,876c-24,88 -26,113 -26,291c0,178 2,203 26,291c133,493 525,841 1023,908c90,13 273,5 367,-14z" fill="#ffffff" id="svg_3"/>
   <path d="m3718,-3730c-393,-62 -686,-339 -763,-719c-26,-126 -17,-317 20,-431c53,-163 126,-281 243,-391c117,-111 216,-169 369,-216c79,-24 104,-27 243,-27c177,-1 242,12 376,74c266,123 449,351 511,635c24,106 21,280 -6,390c-45,186 -154,360 -306,488c-84,70 -240,150 -348,177c-91,23 -258,33 -339,20zm654,-471c61,-44 79,-138 39,-201c-29,-48 -620,-633 -658,-652c-37,-19 -95,-21 -126,-5c-31,16 -356,339 -373,371c-20,39 -18,107 6,146c28,46 97,76 153,67c35,-6 58,-24 157,-121l116,-113l249,250c155,156 265,258 290,270c48,23 104,18 147,-12z" fill="#ffffff" id="svg_4"/>
  </g>
 </g>
</svg>