<svg width="390" height="512" viewBox="0 0 390 512" fill="none" xmlns="http://www.w3.org/2000/svg">
<path d="M184 1.28C172.1 4.48 159.5 14.58 154.9 24.58L152.5 29.88H136.3H120V59.88V89.88H195H270V59.88V29.88H253.7H237.5L235.1 24.58C230.3 14.18 217 3.78 204.9 0.980004C199 -0.419996 189.5 -0.319996 184 1.28Z" fill="#555555"/>
<path d="M7.8 31.98C5.5 33.18 3.2 35.48 2 37.88C0 41.78 0 43.38 0 270.88C0 498.48 0 499.98 2 503.88C3.3 506.48 5.4 508.58 8 509.88C11.9 511.88 13.5 511.88 195 511.88C376.5 511.88 378.1 511.88 382 509.88C384.6 508.58 386.7 506.48 388 503.88C390 499.98 390 498.48 390 270.88C390 43.28 390 41.78 388 37.88C386.7 35.28 384.6 33.18 382 31.88C378.3 29.98 376.2 29.88 339 29.88H300V68.98C300 107.68 300 108.18 297.8 112.08C296.4 114.48 294 116.88 291.8 117.98C288.2 119.78 284.4 119.88 194.9 119.88H101.8L97.8 117.68C90 113.28 90 113.18 90 68.88V29.88H50.8C13.6 29.98 11.3 30.08 7.8 31.98ZM218.2 198.38C256 206.28 285.8 229.38 303 264.38C338.6 336.68 294.8 421.48 214.6 435.48C201.6 437.78 179.9 436.88 166.9 433.58C123.2 422.28 91.2 390.18 79.2 345.98C76.8 337.18 76.6 334.68 76.6 316.88C76.6 299.08 76.8 296.58 79.2 287.78C92.5 238.48 131.7 203.68 181.5 196.98C190.5 195.68 208.8 196.48 218.2 198.38Z" fill="#555555"/>
<path d="M183.8 227.88C144.5 234.08 115.2 261.78 107.5 299.78C104.9 312.38 105.8 331.48 109.5 342.88C114.8 359.18 122.1 370.98 133.8 381.98C145.5 393.08 155.4 398.88 170.7 403.58C178.6 405.98 181.1 406.28 195 406.28C212.7 406.38 219.2 405.08 232.6 398.88C259.2 386.58 277.5 363.78 283.7 335.38C286.1 324.78 285.8 307.38 283.1 296.38C278.6 277.78 267.7 260.38 252.5 247.58C244.1 240.58 228.5 232.58 217.7 229.88C208.6 227.58 191.9 226.58 183.8 227.88ZM249.2 274.98C255.3 279.38 257.1 288.78 253.1 295.08C250.2 299.88 191.1 358.38 187.3 360.28C183.6 362.18 177.8 362.38 174.7 360.78C171.6 359.18 139.1 326.88 137.4 323.68C135.4 319.78 135.6 312.98 138 309.08C140.8 304.48 147.7 301.48 153.3 302.38C156.8 302.98 159.1 304.78 169 314.48L180.6 325.78L205.5 300.78C221 285.18 232 274.98 234.5 273.78C239.3 271.48 244.9 271.98 249.2 274.98Z" fill="#555555"/>
</svg>
