<svg width="448" height="374" viewBox="0 0 448 374" fill="none" xmlns="http://www.w3.org/2000/svg">
<path d="M412.804 2.31706C409.204 3.61706 316.304 39.2171 206.404 81.3171C83.2044 128.517 5.60437 158.717 4.10437 160.117C1.00438 163.017 -0.595625 168.817 0.204375 173.517C1.80438 181.617 2.30438 181.817 60.0044 201.317L112.704 219.117L116.004 217.217C117.804 216.117 173.304 182.317 239.204 141.917C362.404 66.6171 362.304 66.7171 362.304 72.5171C362.304 73.6171 347.904 87.6171 323.704 109.917C302.504 129.417 260.604 168.017 230.704 195.517L176.204 245.717L173.004 291.517C171.204 316.817 169.704 339.017 169.804 340.917C169.804 347.417 175.104 351.417 180.104 348.817C181.304 348.117 195.004 335.217 210.504 320.017C226.104 304.817 239.204 292.317 239.704 292.117C240.304 291.917 264.004 309.417 292.504 331.017C321.004 352.617 345.904 371.217 347.804 372.217C355.404 376.217 366.404 373.017 371.704 365.417C373.404 362.917 382.204 324.317 410.804 194.417C431.204 102.117 447.804 25.3171 447.804 23.6171C447.804 17.6171 445.404 12.5171 440.304 7.41706C432.504 -0.48294 424.604 -1.88294 412.804 2.31706Z" fill="#222222"/>
</svg>
