<?xml version="1.0"?>
<svg width="773" height="763" xmlns="http://www.w3.org/2000/svg" xmlns:svg="http://www.w3.org/2000/svg" preserveAspectRatio="xMidYMid meet" version="1.0">
 <metadata>Created by potrace 1.16, written by Peter Selinger 2001-2019</metadata>
 <g class="layer">
  <title>Layer 1</title>
  <g fill="#000000" id="svg_1" transform="matrix(0.1 0 0 -0.1 0 0)">
   <path d="m5260,-2424c-36,-13 -965,-369 -2064,-790c-1232,-472 -2008,-774 -2023,-788c-31,-29 -47,-87 -39,-134c16,-81 21,-83 598,-278l527,-178l33,19c18,11 573,349 1232,753c1232,753 1231,752 1231,694c0,-11 -144,-151 -386,-374c-212,-195 -631,-581 -930,-856l-545,-502l-32,-458c-18,-253 -33,-475 -32,-494c0,-65 53,-105 103,-79c12,7 149,136 304,288c156,152 287,277 292,279c6,2 243,-173 528,-389c285,-216 534,-402 553,-412c76,-40 186,-8 239,68c17,25 105,411 391,1710c204,923 370,1691 370,1708c0,60 -24,111 -75,162c-78,79 -157,93 -275,51z" fill="#ffffff" id="svg_2"/>
  </g>
 </g>
</svg>