<?xml version="1.0"?>
<svg width="759" height="760" xmlns="http://www.w3.org/2000/svg" xmlns:svg="http://www.w3.org/2000/svg" preserveAspectRatio="xMidYMid meet" version="1.0">
 <metadata>Created by potrace 1.16, written by Peter Selinger 2001-2019</metadata>
 <g class="layer">
  <title>Layer 1</title>
  <g fill="#000000" id="svg_1" transform="matrix(0.1 0 0 -0.1 0 0)">
   <path d="m2095,-1624c-37,-16 -70,-52 -84,-89c-14,-37 -14,-624 0,-794c55,-668 305,-1222 734,-1625c213,-199 520,-358 695,-358c111,0 326,82 472,181c510,344 847,940 945,1669c14,111 18,206 18,532c0,385 -1,397 -21,424c-11,15 -33,37 -48,48c-27,21 -31,21 -1354,23c-1091,2 -1332,0 -1357,-11z" fill="#ffffff" id="svg_2"/>
   <path d="m1295,-2104c-37,-16 -70,-52 -84,-89c-18,-46 -14,-602 4,-716c59,-359 283,-662 613,-826c74,-37 251,-99 259,-91c2,1 -22,47 -52,102c-31,54 -77,150 -103,212c-39,93 -53,117 -82,136c-61,40 -157,143 -204,219c-98,158 -125,276 -126,555l0,192l80,0l80,0l0,160l0,160l-177,0c-126,-1 -187,-5 -208,-14z" fill="#ffffff" id="svg_3"/>
   <path d="m5200,-2249l0,-161l80,0l80,0l0,-192c-1,-212 -13,-303 -54,-413c-51,-134 -157,-275 -266,-354c-40,-28 -51,-46 -95,-149c-28,-64 -73,-157 -100,-207c-28,-49 -51,-93 -53,-97c-2,-4 30,2 70,13c297,82 558,298 697,576c104,208 123,325 119,735c-3,292 -4,308 -24,334c-49,66 -58,69 -265,72l-189,3l0,-160z" fill="#ffffff" id="svg_4"/>
   <path d="m2895,-4664c-28,-96 -97,-281 -135,-362l-49,-104l729,0l729,0l-50,106c-28,58 -70,164 -94,235c-24,71 -46,129 -49,129c-3,-1 -43,-19 -88,-40c-107,-50 -237,-87 -355,-102c-166,-20 -371,20 -546,106c-55,27 -90,40 -92,32z" fill="#ffffff" id="svg_5"/>
   <path d="m2415,-5464c-41,-18 -83,-69 -90,-109c-4,-18 -5,-118 -3,-224c3,-210 5,-218 72,-267c27,-21 33,-21 1046,-21c1013,0 1019,0 1046,21c68,51 69,53 69,294c0,241 -1,243 -69,294c-27,21 -35,21 -1034,23c-822,2 -1013,0 -1037,-11z" fill="#ffffff" id="svg_6"/>
  </g>
 </g>
</svg>