<?xml version="1.0"?>
<svg width="813" height="812" xmlns="http://www.w3.org/2000/svg" xmlns:svg="http://www.w3.org/2000/svg" preserveAspectRatio="xMidYMid meet" version="1.0">
 <metadata>Created by potrace 1.16, written by Peter Selinger 2001-2019</metadata>
 <g class="layer">
  <title>Layer 1</title>
  <g fill="#000000" id="svg_1" transform="matrix(0.1 0 0 -0.1 0 0)">
   <path d="m2200,-1765c-374,-75 -686,-353 -803,-715c-54,-165 -52,-114 -52,-1690c0,-1576 -2,-1525 52,-1690c70,-218 230,-430 416,-553c85,-56 230,-123 322,-147c148,-38 280,-41 1735,-37c1224,3 1404,5 1465,19c233,53 414,154 570,319c110,117 189,249 238,400c54,163 52,113 52,1689c0,1576 2,1526 -52,1689c-55,171 -132,292 -273,431c-154,153 -313,239 -515,281c-86,18 -164,19 -1590,18c-1190,-1 -1513,-4 -1565,-14zm3129,-255c290,-70 521,-302 592,-595c18,-77 19,-133 19,-1555c0,-1422 -1,-1478 -19,-1555c-71,-294 -298,-521 -597,-597l-89,-23l-1460,0c-1388,0 -1464,1 -1540,19c-211,49 -385,167 -500,341c-65,98 -91,157 -116,260c-18,77 -19,133 -19,1555c0,1422 1,1478 19,1555c71,293 299,523 591,595c71,18 147,19 1555,19c1452,1 1482,0 1564,-19z" fill="#ffffff" id="svg_2"/>
   <path d="m2154,-2579c-18,-11 -39,-30 -48,-42c-19,-27 -21,-91 -5,-121c6,-12 304,-385 661,-830c357,-445 651,-814 654,-821c2,-7 -212,-282 -476,-611l-480,-599l0,-49c0,-41 5,-54 34,-86c31,-33 40,-37 84,-37c40,0 56,5 77,25c20,18 848,1042 920,1138c8,10 115,-117 469,-558c252,-315 473,-580 490,-591c29,-18 56,-19 424,-19c427,0 427,0 471,56c23,30 28,92 10,126c-6,11 -304,386 -662,832c-358,446 -651,818 -651,826c0,8 204,269 454,580c250,311 464,580 477,599c36,53 32,112 -11,159c-31,33 -40,37 -84,37c-40,0 -56,-5 -77,-25c-20,-19 -855,-1051 -920,-1138c-8,-10 -114,116 -469,558c-252,315 -473,580 -490,591c-29,18 -56,19 -426,19c-371,0 -397,-1 -426,-19zm1817,-1582c596,-743 1086,-1355 1087,-1360c2,-5 -87,-9 -200,-9l-204,0l-1085,1351c-596,743 -1085,1355 -1087,1360c-2,5 87,9 200,9l204,0l1085,-1351z" fill="#ffffff" id="svg_3"/>
  </g>
 </g>
</svg>