<svg width="485" height="485" viewBox="0 0 485 485" fill="none" xmlns="http://www.w3.org/2000/svg">
<path d="M85.5009 1.42648C48.1009 8.92648 16.901 36.7265 5.20095 72.9265C-0.199049 89.4265 0.000951248 84.3265 0.000951248 241.926C0.000951248 399.526 -0.199049 394.426 5.20095 410.926C12.201 432.726 28.201 453.926 46.8009 466.226C55.3009 471.826 69.8009 478.526 79.0009 480.926C93.8009 484.726 107.001 485.026 252.501 484.626C374.901 484.326 392.901 484.126 399.001 482.726C422.301 477.426 440.401 467.326 456.001 450.826C467.001 439.126 474.901 425.926 479.801 410.826C485.201 394.526 485.001 399.526 485.001 241.926C485.001 84.3265 485.201 89.3265 479.801 73.0265C474.301 55.9265 466.601 43.8265 452.501 29.9265C437.101 14.6265 421.201 6.02648 401.001 1.82648C392.401 0.026482 384.601 -0.073518 242.001 0.026482C123.001 0.126482 90.7009 0.426482 85.5009 1.42648ZM398.401 26.9265C427.401 33.9265 450.501 57.1265 457.601 86.4265C459.401 94.1265 459.501 99.7265 459.501 241.926C459.501 384.126 459.401 389.726 457.601 397.426C450.501 426.826 427.801 449.526 397.901 457.126L389.001 459.426H243.001C104.201 459.426 96.6009 459.326 89.0009 457.526C67.9009 452.626 50.5009 440.826 39.0009 423.426C32.501 413.626 29.901 407.726 27.401 397.426C25.601 389.726 25.5009 384.126 25.5009 241.926C25.5009 99.7265 25.601 94.1265 27.401 86.4265C34.501 57.1265 57.3009 34.1265 86.5009 26.9265C93.6009 25.1265 101.201 25.0265 242.001 25.0265C387.201 24.9265 390.201 25.0265 398.401 26.9265Z" fill="white"/>
<path d="M80.901 82.8265C79.101 83.9265 77.001 85.8265 76.101 87.0265C74.201 89.7265 74.001 96.1265 75.601 99.1265C76.201 100.327 106.001 137.627 141.701 182.127C177.401 226.627 206.801 263.527 207.101 264.227C207.301 264.927 185.901 292.427 159.501 325.327L111.501 385.227V390.127C111.501 394.227 112.001 395.527 114.901 398.727C118.001 402.027 118.901 402.427 123.301 402.427C127.301 402.427 128.901 401.927 131.001 399.927C133.001 398.127 215.801 295.727 223.001 286.127C223.801 285.127 234.501 297.827 269.901 341.927C295.101 373.427 317.201 399.927 318.901 401.027C321.801 402.827 324.501 402.927 361.301 402.927C404.001 402.927 404.001 402.927 408.401 397.327C410.701 394.327 411.201 388.127 409.401 384.727C408.801 383.627 379.001 346.127 343.201 301.527C307.401 256.927 278.101 219.727 278.101 218.927C278.101 218.127 298.501 192.027 323.501 160.927C348.501 129.827 369.901 102.927 371.201 101.027C374.801 95.7265 374.401 89.8265 370.101 85.1265C367.001 81.8265 366.101 81.4265 361.701 81.4265C357.701 81.4265 356.101 81.9265 354.001 83.9265C352.001 85.8265 268.501 189.027 262.001 197.727C261.201 198.727 250.601 186.127 215.101 141.927C189.901 110.427 167.801 83.9265 166.101 82.8265C163.201 81.0265 160.501 80.9265 123.501 80.9265C86.401 80.9265 83.801 81.0265 80.901 82.8265ZM262.601 241.027C322.201 315.327 371.201 376.527 371.301 377.027C371.501 377.527 362.601 377.927 351.301 377.927H330.901L222.401 242.827C162.801 168.527 113.901 107.327 113.701 106.827C113.501 106.327 122.401 105.927 133.701 105.927H154.101L262.601 241.027Z" fill="white"/>
</svg>
