<?xml version="1.0"?>
<svg width="899" height="732" xmlns="http://www.w3.org/2000/svg" xmlns:svg="http://www.w3.org/2000/svg" preserveAspectRatio="xMidYMid meet" version="1.0">
 <metadata>Created by potrace 1.16, written by Peter Selinger 2001-2019</metadata>
 <g class="layer">
  <title>Layer 1</title>
  <g fill="#000000" id="svg_1" transform="matrix(0.1 0 0 -0.1 0 0)">
   <path d="m2480,-1907c-93,-5 -311,-34 -380,-49c-205,-46 -341,-113 -451,-223c-118,-119 -178,-264 -211,-511c-10,-71 -13,-309 -13,-925c0,-892 2,-944 55,-1150c117,-461 419,-671 1040,-725c98,-8 529,-11 1570,-8c1525,5 1504,4 1710,52c383,90 593,296 680,670c50,216 53,266 57,1041c5,744 -1,949 -33,1129c-74,425 -294,606 -829,682c-109,16 -263,18 -1630,19c-830,1 -1535,0 -1565,-2zm1114,-1054c46,-13 1085,-550 1134,-586c81,-61 86,-180 10,-250c-12,-12 -270,-151 -573,-309c-469,-245 -557,-288 -600,-291c-68,-5 -122,26 -152,87l-23,44l0,579c0,406 3,591 11,618c14,47 54,86 105,104c48,17 41,17 88,4z" fill="#ffffff" id="svg_2"/>
  </g>
 </g>
</svg>