<svg width="512" height="360" viewBox="0 0 512 360" fill="none" xmlns="http://www.w3.org/2000/svg">
<path d="M105.5 0.239252C96.2 0.739252 74.4 3.63925 67.5 5.13925C47 9.73925 33.4 16.4393 22.4 27.4393C10.6 39.3393 4.6 53.8393 1.3 78.5393C0.3 85.6393 0 109.439 0 171.039C0 260.239 0.2 265.439 5.5 286.039C17.2 332.139 47.4 353.139 109.5 358.539C119.3 359.339 162.4 359.639 266.5 359.339C419 358.839 416.9 358.939 437.5 354.139C475.8 345.139 496.8 324.539 505.5 287.139C510.5 265.539 510.8 260.539 511.2 183.039C511.7 108.639 511.1 88.1393 507.9 70.1393C500.5 27.6393 478.5 9.53925 425 1.93925C414.1 0.339252 398.7 0.139252 262 0.0392525C179 -0.0607475 108.5 0.0392525 105.5 0.239252ZM216.9 105.639C221.5 106.939 325.4 160.639 330.3 164.239C338.4 170.339 338.9 182.239 331.3 189.239C330.1 190.439 304.3 204.339 274 220.139C227.1 244.639 218.3 248.939 214 249.239C207.2 249.739 201.8 246.639 198.8 240.539L196.5 236.139V178.239C196.5 137.639 196.8 119.139 197.6 116.439C199 111.739 203 107.839 208.1 106.039C212.9 104.339 212.2 104.339 216.9 105.639Z" fill="white"/>
</svg>
