<?xml version="1.0"?>
<svg width="769" height="684" xmlns="http://www.w3.org/2000/svg" xmlns:svg="http://www.w3.org/2000/svg" preserveAspectRatio="xMidYMid meet" version="1.0">
 <metadata>Created by potrace 1.16, written by Peter Selinger 2001-2019</metadata>
 <g class="layer">
  <title>Layer 1</title>
  <g fill="#000000" id="svg_1" transform="matrix(0.1 0 0 -0.1 0 0)">
   <path d="m2210,-1168c-167,-44 -305,-181 -354,-352c-15,-50 -16,-203 -14,-1515c3,-1442 3,-1460 23,-1487c74,-99 226,-85 276,26c18,39 19,98 19,1463c0,982 3,1430 11,1450c13,35 45,70 84,91c27,15 131,17 1127,22c1093,5 1097,5 1125,26c98,73 98,195 0,268c-28,21 -30,21 -1130,23c-1010,2 -1107,1 -1167,-15z" fill="#ffffff" id="svg_2"/>
   <path d="m2891,-1866c-157,-42 -282,-164 -331,-322c-20,-63 -20,-96 -20,-1552c0,-1451 0,-1489 20,-1551c49,-161 177,-280 346,-324c88,-23 2260,-23 2349,0c130,34 239,115 303,227c65,114 62,22 62,1654c0,1450 0,1483 -20,1546c-49,161 -174,281 -335,323c-86,22 -2291,22 -2374,-1z" fill="#ffffff" id="svg_3"/>
  </g>
 </g>
</svg>