<svg width="16" height="16" viewBox="0 0 16 16" fill="none" xmlns="http://www.w3.org/2000/svg">
<g clip-path="url(#clip0_157_2528)">
<path d="M7.99984 0.666748C6.54944 0.666748 5.13162 1.09684 3.92566 1.90264C2.7197 2.70843 1.77977 3.85374 1.22472 5.19374C0.669681 6.53373 0.524457 8.00822 0.807415 9.43074C1.09037 10.8533 1.78881 12.1599 2.81439 13.1855C3.83998 14.2111 5.14665 14.9095 6.56918 15.1925C7.99171 15.4755 9.4662 15.3302 10.8062 14.7752C12.1462 14.2202 13.2915 13.2802 14.0973 12.0743C14.9031 10.8683 15.3332 9.45048 15.3332 8.00008C15.3309 6.05586 14.5575 4.19193 13.1828 2.81716C11.808 1.4424 9.94406 0.669042 7.99984 0.666748ZM10.4712 10.4714C10.3462 10.5964 10.1766 10.6666 9.99984 10.6666C9.82306 10.6666 9.65353 10.5964 9.52851 10.4714L7.52851 8.47141C7.40347 8.34642 7.33321 8.17688 7.33317 8.00008V4.00008C7.33317 3.82327 7.40341 3.6537 7.52844 3.52868C7.65346 3.40365 7.82303 3.33341 7.99984 3.33341C8.17665 3.33341 8.34622 3.40365 8.47124 3.52868C8.59627 3.6537 8.66651 3.82327 8.66651 4.00008V7.72408L10.4712 9.52875C10.5962 9.65377 10.6664 9.82331 10.6664 10.0001C10.6664 10.1769 10.5962 10.3464 10.4712 10.4714Z" fill="white"/>
</g>
<defs>
<clipPath id="clip0_157_2528">
<rect width="16" height="16" fill="white"/>
</clipPath>
</defs>
</svg>
