<svg width="35" height="35" viewBox="0 0 35 35" fill="none" xmlns="http://www.w3.org/2000/svg">
<path d="M29.8802 16.8162C29.885 18.6593 29.4549 20.4775 28.6249 22.1226C27.6407 24.094 26.1278 25.7522 24.2555 26.9114C22.3833 28.0705 20.2256 28.685 18.0243 28.6858C16.1833 28.6906 14.3672 28.26 12.724 27.429L4.77351 30.0822L7.42366 22.1226C6.59365 20.4775 6.16353 18.6593 6.16833 16.8162C6.16918 14.6123 6.7829 12.4522 7.94075 10.5777C9.0986 8.70331 10.7548 7.18863 12.724 6.20336C14.3672 5.37239 16.1833 4.94177 18.0243 4.94657H18.7217C21.629 5.10715 24.3749 6.33568 26.4338 8.39695C28.4927 10.4582 29.7198 13.2073 29.8802 16.118V16.8162Z" stroke="white" stroke-width="1.5" stroke-linecap="round" stroke-linejoin="round"/>
</svg>
