<svg width="28" height="28" viewBox="0 0 28 28" fill="none" xmlns="http://www.w3.org/2000/svg">
<path d="M14.3286 3.77148L5.25967 11.7048V23.0382C5.25967 23.3387 5.39617 23.627 5.63914 23.8395C5.8821 24.0521 6.21163 24.1715 6.55524 24.1715H10.4419C10.7855 24.1715 11.1151 24.0521 11.358 23.8395C11.601 23.627 11.7375 23.3387 11.7375 23.0382V18.5048C11.7375 18.2042 11.874 17.916 12.1169 17.7034C12.3599 17.4909 12.6894 17.3715 13.033 17.3715H15.6242C15.9678 17.3715 16.2973 17.4909 16.5403 17.7034C16.7832 17.916 16.9197 18.2042 16.9197 18.5048V23.0382C16.9197 23.3387 17.0562 23.627 17.2992 23.8395C17.5422 24.0521 17.8717 24.1715 18.2153 24.1715H22.102C22.4456 24.1715 22.7751 24.0521 23.0181 23.8395C23.261 23.627 23.3975 23.3387 23.3975 23.0382V11.7048L14.3286 3.77148Z" fill="white"/>
</svg>
